<?xml version="1.0" standalone="no"?>
<!DOCTYPE svg PUBLIC "-//W3C//DTD SVG 20010904//EN"
 "http://www.w3.org/TR/2001/REC-SVG-20010904/DTD/svg10.dtd">
<svg version="1.0" xmlns="http://www.w3.org/2000/svg"
 width="900.000000pt" height="900.000000pt" viewBox="0 0 900.000000 900.000000"
 preserveAspectRatio="xMidYMid meet">
<metadata>
Created by potrace 1.14, written by Peter Selinger 2001-2017
</metadata>
<g transform="translate(0.000000,900.000000) scale(0.100000,-0.100000)"
fill="#000000" stroke="none">
<path d="M0 4500 l0 -4500 4500 0 4500 0 0 4500 0 4500 -4500 0 -4500 0 0
-4500z m5240 3157 c0 -34 -274 -3650 -285 -3764 l-7 -63 -469 0 c-367 0 -470
3 -473 13 -3 6 -68 851 -145 1877 -78 1026 -144 1889 -147 1918 l-6 52 766 0
766 0 0 -33z m-570 -4392 c108 -16 207 -44 296 -85 200 -90 410 -307 493 -507
55 -133 66 -194 65 -368 0 -195 -20 -290 -94 -440 -92 -188 -238 -339 -420
-434 -170 -88 -313 -121 -528 -121 -319 0 -561 96 -754 298 -118 124 -204 287
-245 465 -26 113 -23 366 5 480 51 205 175 393 342 522 214 165 533 237 840
190z"/>
</g>
</svg>
